<svg width="16" height="18" viewBox="0 0 16 18" fill="none" xmlns="http://www.w3.org/2000/svg">
<path d="M1.67568 0.362793H9.21622C9.66063 0.362793 10.0868 0.546076 10.4011 0.872322C10.7153 1.19857 10.8919 1.64105 10.8919 2.10243V3.84208H9.21622V2.10243H1.67568V16.0196H9.21622V14.2799H10.8919V16.0196C10.8919 16.4809 10.7153 16.9234 10.4011 17.2497C10.0868 17.5759 9.66063 17.7592 9.21622 17.7592H1.67568C1.23126 17.7592 0.805044 17.5759 0.490794 17.2497C0.176544 16.9234 0 16.4809 0 16.0196V2.10243C0 1.64105 0.176544 1.19857 0.490794 0.872322C0.805044 0.546076 1.23126 0.362793 1.67568 0.362793Z" fill="black"/>
<path d="M10.1292 12.1837L11.3106 13.4101L15.4998 9.06102L11.3106 4.71191L10.1292 5.93836L12.2909 8.1912H4.18896V9.93084H12.2909L10.1292 12.1837Z" fill="black"/>
</svg>
