<svg width="100" height="55" viewBox="0 0 100 55" fill="none" xmlns="http://www.w3.org/2000/svg">
<g clip-path="url(#clip0_1064_560)">
<path d="M88.9846 0H11.0154C4.93176 0 0 4.89861 0 10.9414V44.0586C0 50.1014 4.93176 55 11.0154 55H88.9846C95.0682 55 100 50.1014 100 44.0586V10.9414C100 4.89861 95.0682 0 88.9846 0Z" fill="#E63027"/>
<path d="M21.4039 20.6791V21.5412C21.4039 25.5531 21.4039 29.5649 21.4039 33.5767C21.4039 35.6764 22.1475 36.4073 24.2679 36.4084C28.2842 36.4084 32.3004 36.4084 36.3166 36.4084C36.5688 36.4084 36.8233 36.4138 37.0733 36.3919C38.3522 36.2825 39.0991 35.5593 39.1806 34.2934C39.2291 33.5439 39.1971 32.789 39.2004 32.0373C39.2004 31.8349 39.2004 31.6335 39.2004 31.3578H29.9277V24.5304H48.9843V25.2405C48.9843 28.4551 48.9843 31.6693 48.9843 34.8831C48.9766 39.7717 45.4902 43.239 40.5762 43.2423C33.7614 43.2467 26.9454 43.2467 20.1283 43.2423C15.2122 43.2423 11.717 39.7816 11.6939 34.8963C11.6806 32.1379 11.739 29.3785 11.674 26.6224C11.6278 24.653 12.5476 23.2306 14.0126 22.0752C14.4515 21.7463 14.9332 21.478 15.4446 21.2776C17.3459 20.4876 19.3441 20.6583 21.4039 20.6791Z" fill="white"/>
<path d="M11.7511 21.141C11.1365 16.0784 14.7892 11.808 19.8166 11.7894C29.3438 11.7544 38.8732 11.7785 48.3971 11.7796C48.5326 11.7796 48.6681 11.7971 48.8719 11.8102C48.4313 13.9854 47.3463 15.7174 45.6003 17.0347C44.143 18.1354 42.4797 18.6179 40.6522 18.6157C33.5363 18.6085 26.42 18.6085 19.3033 18.6157C17.3205 18.6157 15.4104 18.8991 13.6612 19.8674C13.0058 20.2241 12.4109 20.6946 11.7511 21.141Z" fill="white"/>
<path d="M63.6284 36.4106H88.2787V43.1275H53.9294C53.8952 43.0564 53.86 43.0181 53.86 42.9766C53.8699 39.4895 53.7311 35.9949 53.9338 32.5188C54.1772 28.3545 57.6526 25.2417 61.8571 25.199C66.3547 25.1531 70.8534 25.187 75.3521 25.1859C75.6275 25.1859 75.9029 25.1859 76.1783 25.1793C77.7204 25.1137 78.5301 24.3117 78.5807 22.7722C78.6039 22.095 78.5807 21.4155 78.5807 20.6792C80.8785 20.5993 83.1147 20.689 85.1624 21.7831C87.8513 23.2197 88.4946 26.5361 86.5702 28.9103C84.8749 31.0023 82.6476 31.9805 79.961 31.9739C75.6231 31.9696 71.2852 31.9696 66.9474 31.9739C66.6951 31.9739 66.4418 31.9739 66.1906 31.9739C64.3819 32.0385 63.6571 32.7639 63.6284 34.5473C63.6207 35.1414 63.6284 35.7301 63.6284 36.4106Z" fill="white"/>
<path d="M88.3203 21.6705C85.9476 19.2196 83.0484 18.6452 80.007 18.6299C71.6078 18.5872 63.2074 18.6135 54.8082 18.6124H53.9897C54.4238 14.7938 57.5797 11.8484 61.4549 11.8058C67.8335 11.7379 74.2133 11.7379 80.5941 11.8058C84.9078 11.8594 88.1815 15.3989 88.3181 19.9308C88.3347 20.4527 88.3203 20.9713 88.3203 21.6705Z" fill="white"/>
</g>
<defs>
<clipPath id="clip0_1064_560">
<rect width="100" height="55" fill="white"/>
</clipPath>
</defs>
</svg>
